<mxfile host="Electron" modified="2023-11-14T04:43:53.934Z" agent="Mozilla/5.0 (X11; Linux x86_64) AppleWebKit/537.36 (KHTML, like Gecko) draw.io/22.0.3 Chrome/114.0.5735.289 Electron/25.8.4 Safari/537.36" etag="viOHuivRv1gHnn9NHaK_" version="22.0.3" type="device">
  <diagram name="Page-1" id="e7e014a7-5840-1c2e-5031-d8a46d1fe8dd">
    <mxGraphModel dx="583" dy="789" grid="1" gridSize="10" guides="1" tooltips="1" connect="1" arrows="1" fold="1" page="0" pageScale="1" pageWidth="1169" pageHeight="826" background="none" math="0" shadow="0">
      <root>
        <mxCell id="0" />
        <mxCell id="1" parent="0" />
        <mxCell id="d-MWqeJbJxrhNkjnCADe-1" style="edgeStyle=orthogonalEdgeStyle;rounded=0;orthogonalLoop=1;jettySize=auto;html=1;strokeWidth=2;fillColor=#ffe6cc;strokeColor=#d79b00;" edge="1" parent="1" source="d-MWqeJbJxrhNkjnCADe-2" target="d-MWqeJbJxrhNkjnCADe-4">
          <mxGeometry relative="1" as="geometry" />
        </mxCell>
        <mxCell id="d-MWqeJbJxrhNkjnCADe-2" value="" style="ellipse;html=1;shape=startState;fillColor=#000000;strokeColor=#999900;" vertex="1" parent="1">
          <mxGeometry x="965" y="155" width="30" height="30" as="geometry" />
        </mxCell>
        <mxCell id="d-MWqeJbJxrhNkjnCADe-49" style="edgeStyle=orthogonalEdgeStyle;shape=connector;rounded=0;orthogonalLoop=1;jettySize=auto;html=1;labelBackgroundColor=default;strokeColor=#d79b00;strokeWidth=2;align=center;verticalAlign=middle;fontFamily=Helvetica;fontSize=11;fontColor=default;endArrow=classic;fillColor=#ffe6cc;" edge="1" parent="1" source="d-MWqeJbJxrhNkjnCADe-4" target="d-MWqeJbJxrhNkjnCADe-48">
          <mxGeometry relative="1" as="geometry" />
        </mxCell>
        <mxCell id="d-MWqeJbJxrhNkjnCADe-4" value="Initialization" style="fillColor=#dae8fc;strokeColor=#6c8ebf;" vertex="1" parent="1">
          <mxGeometry x="1120" y="140" width="120" height="60" as="geometry" />
        </mxCell>
        <mxCell id="d-MWqeJbJxrhNkjnCADe-5" style="edgeStyle=orthogonalEdgeStyle;rounded=0;orthogonalLoop=1;jettySize=auto;html=1;strokeWidth=2;fillColor=#ffe6cc;strokeColor=#d79b00;entryX=0.5;entryY=0;entryDx=0;entryDy=0;" edge="1" parent="1" source="d-MWqeJbJxrhNkjnCADe-48" target="d-MWqeJbJxrhNkjnCADe-53">
          <mxGeometry relative="1" as="geometry">
            <mxPoint x="1140" y="220" as="sourcePoint" />
          </mxGeometry>
        </mxCell>
        <mxCell id="d-MWqeJbJxrhNkjnCADe-7" style="edgeStyle=orthogonalEdgeStyle;rounded=0;orthogonalLoop=1;jettySize=auto;html=1;exitX=0.25;exitY=0.5;exitDx=0;exitDy=0;strokeWidth=2;fillColor=#ffe6cc;strokeColor=#d79b00;exitPerimeter=0;entryX=0.5;entryY=0;entryDx=0;entryDy=0;" edge="1" parent="1" source="d-MWqeJbJxrhNkjnCADe-48" target="d-MWqeJbJxrhNkjnCADe-51">
          <mxGeometry relative="1" as="geometry">
            <Array as="points">
              <mxPoint x="1130" y="240" />
              <mxPoint x="980" y="240" />
            </Array>
            <mxPoint x="1080" y="190" as="sourcePoint" />
          </mxGeometry>
        </mxCell>
        <mxCell id="d-MWqeJbJxrhNkjnCADe-9" style="edgeStyle=orthogonalEdgeStyle;rounded=0;orthogonalLoop=1;jettySize=auto;html=1;strokeWidth=2;fillColor=#ffe6cc;strokeColor=#d79b00;exitX=0.75;exitY=0.5;exitDx=0;exitDy=0;exitPerimeter=0;entryX=0.5;entryY=0;entryDx=0;entryDy=0;" edge="1" parent="1" source="d-MWqeJbJxrhNkjnCADe-48" target="d-MWqeJbJxrhNkjnCADe-54">
          <mxGeometry relative="1" as="geometry">
            <mxPoint x="1200" y="190" as="sourcePoint" />
            <Array as="points">
              <mxPoint x="1230" y="240" />
              <mxPoint x="1380" y="240" />
              <mxPoint x="1380" y="260" />
            </Array>
          </mxGeometry>
        </mxCell>
        <mxCell id="d-MWqeJbJxrhNkjnCADe-12" value="" style="ellipse;shape=endState;fillColor=#000000;strokeColor=#999900;" vertex="1" parent="1">
          <mxGeometry x="1165" y="600" width="30" height="30" as="geometry" />
        </mxCell>
        <mxCell id="d-MWqeJbJxrhNkjnCADe-15" style="edgeStyle=orthogonalEdgeStyle;rounded=0;orthogonalLoop=1;jettySize=auto;html=1;strokeWidth=2;fillColor=#ffe6cc;strokeColor=#d79b00;entryX=0.5;entryY=0;entryDx=0;entryDy=0;" edge="1" parent="1" source="d-MWqeJbJxrhNkjnCADe-16" target="d-MWqeJbJxrhNkjnCADe-33">
          <mxGeometry relative="1" as="geometry" />
        </mxCell>
        <mxCell id="d-MWqeJbJxrhNkjnCADe-16" value="Process&#xa;libvfio-user&#xa;commands" style="fillColor=#dae8fc;strokeColor=#6c8ebf;" vertex="1" parent="1">
          <mxGeometry x="1120" y="360" width="120" height="60" as="geometry" />
        </mxCell>
        <mxCell id="d-MWqeJbJxrhNkjnCADe-17" value="Receive packets" style="fillColor=#dae8fc;strokeColor=#6c8ebf;" vertex="1" parent="1">
          <mxGeometry x="920" y="360" width="120" height="60" as="geometry" />
        </mxCell>
        <mxCell id="d-MWqeJbJxrhNkjnCADe-18" style="edgeStyle=orthogonalEdgeStyle;rounded=0;orthogonalLoop=1;jettySize=auto;html=1;fillColor=#ffe6cc;strokeColor=#d79b00;strokeWidth=2;exitX=0.5;exitY=1;exitDx=0;exitDy=0;" edge="1" parent="1" source="d-MWqeJbJxrhNkjnCADe-32">
          <mxGeometry relative="1" as="geometry">
            <mxPoint x="1130" y="560" as="targetPoint" />
          </mxGeometry>
        </mxCell>
        <mxCell id="d-MWqeJbJxrhNkjnCADe-19" value="yes" style="edgeLabel;html=1;align=center;verticalAlign=middle;resizable=0;points=[];" vertex="1" connectable="0" parent="d-MWqeJbJxrhNkjnCADe-18">
          <mxGeometry x="-0.3973" relative="1" as="geometry">
            <mxPoint x="-22" y="-15" as="offset" />
          </mxGeometry>
        </mxCell>
        <mxCell id="d-MWqeJbJxrhNkjnCADe-23" value="Update&#xa;interrupt&#xa;mitigation" style="fillColor=#dae8fc;strokeColor=#6c8ebf;" vertex="1" parent="1">
          <mxGeometry x="1320" y="360" width="120" height="60" as="geometry" />
        </mxCell>
        <mxCell id="d-MWqeJbJxrhNkjnCADe-26" style="edgeStyle=orthogonalEdgeStyle;rounded=0;orthogonalLoop=1;jettySize=auto;html=1;strokeWidth=2;fillColor=#ffe6cc;strokeColor=#d79b00;entryX=0.5;entryY=0;entryDx=0;entryDy=0;" edge="1" parent="1" source="d-MWqeJbJxrhNkjnCADe-17" target="d-MWqeJbJxrhNkjnCADe-32">
          <mxGeometry relative="1" as="geometry">
            <mxPoint x="1090" y="520" as="targetPoint" />
          </mxGeometry>
        </mxCell>
        <mxCell id="d-MWqeJbJxrhNkjnCADe-27" style="edgeStyle=orthogonalEdgeStyle;rounded=0;orthogonalLoop=1;jettySize=auto;html=1;entryX=0.5;entryY=0;entryDx=0;entryDy=0;strokeWidth=2;fillColor=#ffe6cc;strokeColor=#d79b00;" edge="1" parent="1" source="d-MWqeJbJxrhNkjnCADe-23" target="d-MWqeJbJxrhNkjnCADe-34">
          <mxGeometry relative="1" as="geometry" />
        </mxCell>
        <mxCell id="d-MWqeJbJxrhNkjnCADe-36" style="edgeStyle=orthogonalEdgeStyle;shape=connector;rounded=0;orthogonalLoop=1;jettySize=auto;html=1;entryX=1;entryY=0.5;entryDx=0;entryDy=0;labelBackgroundColor=default;strokeColor=#d79b00;strokeWidth=2;align=center;verticalAlign=middle;fontFamily=Helvetica;fontSize=11;fontColor=default;endArrow=classic;fillColor=#ffe6cc;" edge="1" parent="1" source="d-MWqeJbJxrhNkjnCADe-32" target="d-MWqeJbJxrhNkjnCADe-51">
          <mxGeometry relative="1" as="geometry">
            <Array as="points">
              <mxPoint x="1060" y="490" />
              <mxPoint x="1060" y="290" />
            </Array>
          </mxGeometry>
        </mxCell>
        <mxCell id="d-MWqeJbJxrhNkjnCADe-37" value="no" style="edgeLabel;html=1;align=center;verticalAlign=middle;resizable=0;points=[];fontSize=11;fontFamily=Helvetica;fontColor=default;" vertex="1" connectable="0" parent="d-MWqeJbJxrhNkjnCADe-36">
          <mxGeometry x="-0.8714" y="-2" relative="1" as="geometry">
            <mxPoint x="-5" y="-12" as="offset" />
          </mxGeometry>
        </mxCell>
        <mxCell id="d-MWqeJbJxrhNkjnCADe-32" value="Exception thrown?" style="rhombus;whiteSpace=wrap;html=1;fillColor=#dae8fc;strokeColor=#6c8ebf;" vertex="1" parent="1">
          <mxGeometry x="920" y="460" width="120" height="60" as="geometry" />
        </mxCell>
        <mxCell id="d-MWqeJbJxrhNkjnCADe-33" value="Exception thrown?" style="rhombus;whiteSpace=wrap;html=1;fillColor=#dae8fc;strokeColor=#6c8ebf;" vertex="1" parent="1">
          <mxGeometry x="1120" y="460" width="120" height="60" as="geometry" />
        </mxCell>
        <mxCell id="d-MWqeJbJxrhNkjnCADe-34" value="Exception thrown?" style="rhombus;whiteSpace=wrap;html=1;fillColor=#dae8fc;strokeColor=#6c8ebf;" vertex="1" parent="1">
          <mxGeometry x="1320" y="460" width="120" height="60" as="geometry" />
        </mxCell>
        <mxCell id="d-MWqeJbJxrhNkjnCADe-38" style="edgeStyle=orthogonalEdgeStyle;shape=connector;rounded=0;orthogonalLoop=1;jettySize=auto;html=1;entryX=1;entryY=0.5;entryDx=0;entryDy=0;labelBackgroundColor=default;strokeColor=#d79b00;strokeWidth=2;align=center;verticalAlign=middle;fontFamily=Helvetica;fontSize=11;fontColor=default;endArrow=classic;fillColor=#ffe6cc;" edge="1" parent="1" target="d-MWqeJbJxrhNkjnCADe-53">
          <mxGeometry relative="1" as="geometry">
            <mxPoint x="1240" y="490" as="sourcePoint" />
            <mxPoint x="1240" y="390" as="targetPoint" />
            <Array as="points">
              <mxPoint x="1260" y="490" />
              <mxPoint x="1260" y="290" />
            </Array>
          </mxGeometry>
        </mxCell>
        <mxCell id="d-MWqeJbJxrhNkjnCADe-39" value="no" style="edgeLabel;html=1;align=center;verticalAlign=middle;resizable=0;points=[];fontSize=11;fontFamily=Helvetica;fontColor=default;" vertex="1" connectable="0" parent="d-MWqeJbJxrhNkjnCADe-38">
          <mxGeometry x="-0.8714" y="-2" relative="1" as="geometry">
            <mxPoint x="-5" y="-12" as="offset" />
          </mxGeometry>
        </mxCell>
        <mxCell id="d-MWqeJbJxrhNkjnCADe-40" style="edgeStyle=orthogonalEdgeStyle;shape=connector;rounded=0;orthogonalLoop=1;jettySize=auto;html=1;entryX=1;entryY=0.5;entryDx=0;entryDy=0;labelBackgroundColor=default;strokeColor=#d79b00;strokeWidth=2;align=center;verticalAlign=middle;fontFamily=Helvetica;fontSize=11;fontColor=default;endArrow=classic;fillColor=#ffe6cc;" edge="1" parent="1" target="d-MWqeJbJxrhNkjnCADe-54">
          <mxGeometry relative="1" as="geometry">
            <mxPoint x="1440" y="490" as="sourcePoint" />
            <mxPoint x="1440" y="390" as="targetPoint" />
            <Array as="points">
              <mxPoint x="1460" y="490" />
              <mxPoint x="1460" y="290" />
            </Array>
          </mxGeometry>
        </mxCell>
        <mxCell id="d-MWqeJbJxrhNkjnCADe-41" value="no" style="edgeLabel;html=1;align=center;verticalAlign=middle;resizable=0;points=[];fontSize=11;fontFamily=Helvetica;fontColor=default;" vertex="1" connectable="0" parent="d-MWqeJbJxrhNkjnCADe-40">
          <mxGeometry x="-0.8714" y="-2" relative="1" as="geometry">
            <mxPoint x="-5" y="-12" as="offset" />
          </mxGeometry>
        </mxCell>
        <mxCell id="d-MWqeJbJxrhNkjnCADe-50" style="edgeStyle=orthogonalEdgeStyle;shape=connector;rounded=0;orthogonalLoop=1;jettySize=auto;html=1;entryX=0.5;entryY=0;entryDx=0;entryDy=0;labelBackgroundColor=default;strokeColor=#d79b00;strokeWidth=2;align=center;verticalAlign=middle;fontFamily=Helvetica;fontSize=11;fontColor=default;endArrow=classic;fillColor=#ffe6cc;" edge="1" parent="1" source="d-MWqeJbJxrhNkjnCADe-42" target="d-MWqeJbJxrhNkjnCADe-12">
          <mxGeometry relative="1" as="geometry" />
        </mxCell>
        <mxCell id="d-MWqeJbJxrhNkjnCADe-42" value="" style="shape=line;html=1;strokeWidth=6;strokeColor=#000000;" vertex="1" parent="1">
          <mxGeometry x="1080" y="560" width="200" height="10" as="geometry" />
        </mxCell>
        <mxCell id="d-MWqeJbJxrhNkjnCADe-44" style="edgeStyle=orthogonalEdgeStyle;rounded=0;orthogonalLoop=1;jettySize=auto;html=1;fillColor=#ffe6cc;strokeColor=#d79b00;strokeWidth=2;exitX=0.5;exitY=1;exitDx=0;exitDy=0;" edge="1" parent="1" source="d-MWqeJbJxrhNkjnCADe-33" target="d-MWqeJbJxrhNkjnCADe-42">
          <mxGeometry relative="1" as="geometry">
            <mxPoint x="990" y="530" as="sourcePoint" />
            <mxPoint x="1138" y="575" as="targetPoint" />
          </mxGeometry>
        </mxCell>
        <mxCell id="d-MWqeJbJxrhNkjnCADe-45" value="yes" style="edgeLabel;html=1;align=center;verticalAlign=middle;resizable=0;points=[];" vertex="1" connectable="0" parent="d-MWqeJbJxrhNkjnCADe-44">
          <mxGeometry x="-0.3973" relative="1" as="geometry">
            <mxPoint x="15" y="-2" as="offset" />
          </mxGeometry>
        </mxCell>
        <mxCell id="d-MWqeJbJxrhNkjnCADe-46" style="edgeStyle=orthogonalEdgeStyle;rounded=0;orthogonalLoop=1;jettySize=auto;html=1;fillColor=#ffe6cc;strokeColor=#d79b00;strokeWidth=2;exitX=0.5;exitY=1;exitDx=0;exitDy=0;" edge="1" parent="1" source="d-MWqeJbJxrhNkjnCADe-34">
          <mxGeometry relative="1" as="geometry">
            <mxPoint x="1000" y="540" as="sourcePoint" />
            <mxPoint x="1230" y="560" as="targetPoint" />
          </mxGeometry>
        </mxCell>
        <mxCell id="d-MWqeJbJxrhNkjnCADe-47" value="yes" style="edgeLabel;html=1;align=center;verticalAlign=middle;resizable=0;points=[];" vertex="1" connectable="0" parent="d-MWqeJbJxrhNkjnCADe-46">
          <mxGeometry x="-0.3973" relative="1" as="geometry">
            <mxPoint x="53" y="-15" as="offset" />
          </mxGeometry>
        </mxCell>
        <mxCell id="d-MWqeJbJxrhNkjnCADe-48" value="" style="shape=line;html=1;strokeWidth=6;strokeColor=#000000;" vertex="1" parent="1">
          <mxGeometry x="1080" y="220" width="200" height="10" as="geometry" />
        </mxCell>
        <mxCell id="d-MWqeJbJxrhNkjnCADe-57" style="edgeStyle=orthogonalEdgeStyle;shape=connector;rounded=0;orthogonalLoop=1;jettySize=auto;html=1;entryX=0.5;entryY=0;entryDx=0;entryDy=0;labelBackgroundColor=default;strokeColor=#d79b00;strokeWidth=2;align=center;verticalAlign=middle;fontFamily=Helvetica;fontSize=11;fontColor=default;endArrow=classic;fillColor=#ffe6cc;" edge="1" parent="1" source="d-MWqeJbJxrhNkjnCADe-51" target="d-MWqeJbJxrhNkjnCADe-17">
          <mxGeometry relative="1" as="geometry" />
        </mxCell>
        <mxCell id="d-MWqeJbJxrhNkjnCADe-51" value="Wait for&#xa;TAP interface&#xa;event" style="fillColor=#dae8fc;strokeColor=#6c8ebf;" vertex="1" parent="1">
          <mxGeometry x="920" y="260" width="120" height="60" as="geometry" />
        </mxCell>
        <mxCell id="d-MWqeJbJxrhNkjnCADe-56" style="edgeStyle=orthogonalEdgeStyle;shape=connector;rounded=0;orthogonalLoop=1;jettySize=auto;html=1;entryX=0.5;entryY=0;entryDx=0;entryDy=0;labelBackgroundColor=default;strokeColor=#d79b00;strokeWidth=2;align=center;verticalAlign=middle;fontFamily=Helvetica;fontSize=11;fontColor=default;endArrow=classic;fillColor=#ffe6cc;" edge="1" parent="1" source="d-MWqeJbJxrhNkjnCADe-53" target="d-MWqeJbJxrhNkjnCADe-16">
          <mxGeometry relative="1" as="geometry" />
        </mxCell>
        <mxCell id="d-MWqeJbJxrhNkjnCADe-53" value="Wait for&#xa;libvfio-user&#xa;event" style="fillColor=#dae8fc;strokeColor=#6c8ebf;" vertex="1" parent="1">
          <mxGeometry x="1120" y="260" width="120" height="60" as="geometry" />
        </mxCell>
        <mxCell id="d-MWqeJbJxrhNkjnCADe-58" style="edgeStyle=orthogonalEdgeStyle;shape=connector;rounded=0;orthogonalLoop=1;jettySize=auto;html=1;entryX=0.5;entryY=0;entryDx=0;entryDy=0;labelBackgroundColor=default;strokeColor=#d79b00;strokeWidth=2;align=center;verticalAlign=middle;fontFamily=Helvetica;fontSize=11;fontColor=default;endArrow=classic;fillColor=#ffe6cc;" edge="1" parent="1" source="d-MWqeJbJxrhNkjnCADe-54" target="d-MWqeJbJxrhNkjnCADe-23">
          <mxGeometry relative="1" as="geometry" />
        </mxCell>
        <mxCell id="d-MWqeJbJxrhNkjnCADe-54" value="Wait for&#xa;timer &#xa;event" style="fillColor=#dae8fc;strokeColor=#6c8ebf;" vertex="1" parent="1">
          <mxGeometry x="1320" y="260" width="120" height="60" as="geometry" />
        </mxCell>
      </root>
    </mxGraphModel>
  </diagram>
</mxfile>
